<svg xmlns="http://www.w3.org/2000/svg" width="512" height="512" viewBox="0 0 512 512" version="1.1"><path d="M 140.195 234.489 C 136.893 237.268, 135.734 241.171, 137.126 244.831 C 137.634 246.168, 143.214 254.614, 149.525 263.600 C 155.836 272.585, 161 280.309, 161 280.764 C 161 281.220, 154.690 290.533, 146.978 301.460 C 139.266 312.388, 132.697 322.360, 132.380 323.621 C 130.237 332.161, 141.984 339.122, 148.387 333.107 C 149.729 331.845, 155.857 323.655, 162.004 314.907 C 168.150 306.158, 173.477 299.008, 173.840 299.019 C 174.203 299.029, 179.900 306.746, 186.500 316.168 C 199.059 334.096, 201.996 336.792, 207.471 335.418 C 211.606 334.380, 215 330.183, 214.996 326.114 C 214.992 321.810, 214.777 321.448, 198.670 298.608 L 186.053 280.715 191.489 273.108 C 204.654 254.683, 211 244.725, 211 242.492 C 211 236.936, 206.142 232, 200.672 232 C 196.813 232, 193.127 235.764, 183.614 249.421 C 178.813 256.314, 174.568 262.149, 174.182 262.388 C 173.795 262.627, 169.208 256.738, 163.989 249.301 C 158.770 241.864, 153.427 234.929, 152.115 233.890 C 148.753 231.226, 143.776 231.476, 140.195 234.489 M 240.750 233.080 C 236.146 235.762, 236 237.304, 236 283.385 C 236 308.600, 236.401 327.926, 236.955 329.383 C 238.998 334.754, 241.843 335.500, 260.288 335.500 L 277.164 335.500 280.082 332.234 C 283.801 328.072, 283.990 323.265, 280.590 319.306 C 278.288 316.625, 277.698 316.478, 267.340 316 L 256.500 315.500 256 276.163 L 255.500 236.825 252.694 234.413 C 249.696 231.834, 243.983 231.197, 240.750 233.080 M 333.440 232.937 C 310.939 238.324, 302.436 264.604, 318.274 279.812 C 320.645 282.089, 326.376 285.004, 336.612 289.141 C 354.203 296.250, 357.367 298.057, 358.961 301.906 C 359.944 304.280, 359.873 305.346, 358.558 307.888 C 355.332 314.126, 347.757 316.586, 337.977 314.571 C 332.586 313.460, 330.563 312.366, 321 305.390 C 316.859 302.370, 312.084 302.633, 308.408 306.086 C 301.601 312.481, 305.935 321.139, 320 329.248 C 330.899 335.531, 347.411 337.171, 358.247 333.046 C 365.888 330.138, 374.039 322.641, 377.032 315.770 C 381.888 304.621, 378.877 291.363, 369.689 283.438 C 364.472 278.938, 361.793 277.576, 345.149 270.960 C 330.655 265.198, 328.740 263.522, 330.582 258.210 C 333.094 250.964, 346.030 250.085, 357.485 256.381 C 365.351 260.705, 369.693 261.028, 373.694 257.587 C 377.456 254.351, 377.690 247.427, 374.163 243.674 C 371.147 240.463, 361.984 235.627, 355.068 233.595 C 349.496 231.959, 338.878 231.635, 333.440 232.937" stroke="none" fill="#ffffff" fill-rule="evenodd"/><path d="M 69.215 377.257 C 64.707 378.701, 57.352 385.390, 54.825 390.342 C 51.919 396.040, 51.261 405.776, 53.403 411.385 C 55.583 417.093, 61.059 422.653, 67.419 425.614 C 72.102 427.795, 73.772 427.981, 88.750 427.990 L 105 428 105 402 L 105 376 88.750 376.102 C 79.813 376.158, 71.022 376.678, 69.215 377.257" stroke="none" fill="#00a649" fill-rule="evenodd"/><path d="M 366.188 35.195 C 366.484 66.748, 366.612 68.743, 368.637 73.122 C 371.705 79.757, 377.321 85.519, 383.839 88.720 L 389.500 91.500 424.833 91.798 L 460.165 92.096 459.463 89.798 C 457.768 84.254, 455.951 80.952, 452.482 77.112 C 446.370 70.347, 373.111 5.646, 369.353 3.695 L 365.877 1.889 366.188 35.195 M 420.310 375.748 C 427.905 375.918, 440.055 375.918, 447.310 375.747 C 454.564 375.576, 448.350 375.437, 433.500 375.438 C 418.650 375.438, 412.714 375.578, 420.310 375.748" stroke="none" fill="#a3a2a3" fill-rule="evenodd"/><path d="M 71.365 190.010 C 65.312 191.917, 58.788 197.287, 55.584 203 L 52.500 208.500 52.326 303 C 52.230 354.975, 52.499 396.372, 52.924 394.994 C 55.329 387.193, 62.843 379.262, 69.807 377.176 C 72.741 376.297, 112.450 376, 227.116 375.999 C 311.477 375.998, 398.387 375.700, 420.250 375.336 L 460 374.675 460 282.337 L 460 190 290.250 189.998 C 196.887 189.996, 110.150 189.777, 97.500 189.509 C 83.686 189.217, 73.248 189.417, 71.365 190.010 M 142.014 232.752 C 138.183 234.673, 136.037 238.047, 136.015 242.187 C 136.001 244.777, 138.203 248.277, 154.720 271.909 L 160.941 280.809 151.102 294.757 C 133.488 319.726, 132 322.095, 132 325.166 C 132 332.178, 137.612 336.858, 144.476 335.571 C 148.515 334.813, 148.835 334.444, 163.416 313.701 L 173.819 298.901 185.120 315.039 C 197.773 333.107, 200.586 336, 205.500 336 C 212.353 336, 217.954 327.629, 214.963 321.855 C 214.292 320.560, 207.726 310.890, 200.372 300.366 C 193.017 289.842, 187 280.972, 187 280.654 C 187 280.337, 191.880 273.197, 197.844 264.788 C 210.752 246.589, 211 246.150, 211 241.489 C 211 233.715, 201.017 229.014, 194.885 233.901 C 193.573 234.946, 188.450 241.677, 183.500 248.859 C 178.550 256.041, 174.243 261.936, 173.929 261.959 C 173.615 261.981, 168.933 255.648, 163.526 247.885 C 156.077 237.191, 152.891 233.435, 150.379 232.385 C 146.217 230.646, 146.212 230.646, 142.014 232.752 M 240.826 232.712 C 239.355 233.625, 237.668 235.434, 237.076 236.733 C 235.485 240.224, 235.595 327.017, 237.195 330.528 C 239.341 335.238, 242.445 336, 259.500 336 C 277.305 336, 280.196 335.168, 282.628 329.348 C 283.807 326.527, 283.870 325.136, 282.946 322.337 C 281.095 316.727, 277.181 315.008, 266.250 315.004 L 257 315 257 277.968 C 257 237.221, 256.776 235.487, 251.128 232.566 C 247.275 230.574, 244.203 230.617, 240.826 232.712 M 334.425 232.481 C 323.618 234.833, 314.510 242.269, 310.942 251.654 C 310.355 253.197, 309.875 257.331, 309.875 260.842 C 309.875 268.656, 313.329 276.477, 318.754 280.949 C 320.749 282.593, 329.383 286.740, 337.940 290.164 C 358.513 298.395, 362.416 302.387, 356.832 309.486 C 350.537 317.489, 336.172 316.606, 324.439 307.495 C 317.145 301.831, 312.461 301.385, 307.923 305.923 C 305.605 308.241, 305 309.730, 305 313.116 C 305 316.966, 305.527 317.898, 310.354 322.573 C 326.776 338.478, 354.492 340.392, 369.682 326.668 C 377.791 319.342, 381.742 307.114, 379.124 297.441 C 377.458 291.285, 372.539 284.613, 366.725 280.624 C 363.851 278.653, 355.238 274.549, 347.585 271.505 C 339.932 268.461, 333.046 265.454, 332.284 264.821 C 331.458 264.135, 331.020 262.264, 331.199 260.185 C 331.646 255.010, 335.333 252.667, 343.028 252.667 C 348.241 252.667, 350.302 253.275, 357.147 256.833 C 365.599 261.227, 367.773 261.695, 371.316 259.883 C 375.092 257.952, 376.954 254.751, 376.978 250.151 C 376.996 246.523, 376.461 245.296, 373.750 242.746 C 369.173 238.443, 357.672 233.260, 350 232.045 C 342.198 230.809, 342.096 230.812, 334.425 232.481" stroke="none" fill="#04da5b" fill-rule="evenodd"/><path d="M 152 1.576 C 130.187 7.305, 112.604 24.795, 106.335 47 C 104.637 53.016, 104.500 58.564, 104.500 121.500 L 104.500 189.500 282.250 189.753 L 460 190.006 460 141.050 L 460 92.095 424.750 91.798 C 391.192 91.514, 389.278 91.397, 384.878 89.363 C 378.243 86.295, 372.481 80.679, 369.280 74.161 L 366.500 68.500 366 35.044 L 365.500 1.588 363 0.894 C 361.625 0.512, 314.825 0.184, 259 0.165 C 173.638 0.137, 156.626 0.361, 152 1.576 M 256.481 278 L 256.500 315.500 266.252 315.557 L 276.005 315.615 266.514 315.271 L 257.024 314.928 256.743 277.714 L 256.462 240.500 256.481 278 M 365.250 260.689 C 366.212 260.941, 367.788 260.941, 368.750 260.689 C 369.712 260.438, 368.925 260.232, 367 260.232 C 365.075 260.232, 364.288 260.438, 365.250 260.689 M 369.946 325.750 L 366.500 329.500 370.250 326.054 C 373.740 322.846, 374.460 322, 373.696 322 C 373.529 322, 371.842 323.688, 369.946 325.750 M 104.630 417.260 C 103.909 460.345, 104.355 468.650, 107.894 477.963 C 114.031 494.113, 127.338 506.248, 143.542 510.469 C 148.678 511.807, 166.228 512, 282.500 512 C 428.006 512, 421.215 512.262, 432.360 506.217 C 443.805 500.009, 454.259 487.377, 458.015 475.217 C 459.874 469.197, 460 465.849, 460 422.395 L 460 376 282.660 376 L 105.320 376 104.630 417.260" stroke="none" fill="#e5e6ed" fill-rule="evenodd"/></svg>