<svg xmlns="http://www.w3.org/2000/svg" width="512" height="512" viewBox="0 0 512 512" version="1.1"><path d="M 415.487 63.740 L 479.474 127.980 431.733 128.240 L 383.992 128.500 431.996 176.496 L 480 224.492 480 175.993 L 480 127.494 415.750 63.497 L 351.500 -0.500 415.487 63.740 M 204.296 295.744 C 208.583 295.932, 215.333 295.931, 219.296 295.742 C 223.258 295.552, 219.750 295.399, 211.500 295.400 C 203.250 295.401, 200.008 295.556, 204.296 295.744 M 307.306 295.747 C 313.800 295.922, 324.150 295.921, 330.306 295.746 C 336.463 295.571, 331.150 295.428, 318.500 295.429 C 305.850 295.429, 300.813 295.573, 307.306 295.747 M 118.405 326.500 C 118.406 335.300, 118.559 338.766, 118.745 334.203 C 118.930 329.639, 118.929 322.439, 118.742 318.203 C 118.555 313.966, 118.404 317.700, 118.405 326.500 M 312.299 332.745 C 317.139 332.929, 324.789 332.928, 329.299 332.743 C 333.810 332.558, 329.850 332.408, 320.500 332.409 C 311.150 332.410, 307.460 332.562, 312.299 332.745 M 118.355 367.500 C 118.352 372.450, 118.521 374.601, 118.731 372.280 C 118.940 369.959, 118.943 365.909, 118.736 363.280 C 118.530 360.651, 118.358 362.550, 118.355 367.500 M 210.250 368.739 C 213.412 368.937, 218.588 368.937, 221.750 368.739 C 224.912 368.541, 222.325 368.378, 216 368.378 C 209.675 368.378, 207.088 368.541, 210.250 368.739 M 415.201 421.173 C 414.882 423.828, 409.897 429.145, 406.329 430.636 C 403.620 431.768, 376.941 432, 249.532 432 L 96 432 96 440.009 L 96 448.019 250.828 447.759 L 405.656 447.500 409.187 444.806 C 414.551 440.715, 416.147 436.444, 415.743 427.260 C 415.556 422.992, 415.312 420.253, 415.201 421.173" stroke="none" fill="#cad1d8" fill-rule="evenodd"/><path d="M 116.035 2.202 C 108.556 5.073, 100.990 12.739, 98.154 20.319 L 96 26.075 96 133.038 L 96 240 250.114 240 L 404.228 240 407.996 242.118 C 410.069 243.283, 412.724 245.944, 413.897 248.031 L 416.031 251.827 415.765 344.741 L 415.500 437.656 412.806 441.187 C 407.182 448.561, 420.615 448, 249.599 448 L 96 448 96 466.962 C 96 483.928, 96.227 486.531, 98.154 491.681 C 101.060 499.449, 108.551 506.940, 116.319 509.846 L 122.075 512 288 512 L 453.925 512 459.681 509.846 C 467.449 506.940, 474.940 499.449, 477.846 491.681 L 480 485.925 480 355.209 L 480 224.492 431.746 176.246 C 391.829 136.336, 383.024 128, 380.784 128 C 371.109 128, 357.994 117.945, 354.102 107.543 C 352.067 102.104, 352 100.299, 352 50.962 L 352 0 236.750 0.052 C 122.168 0.104, 121.468 0.116, 116.035 2.202 M 108.295 295.107 C 101.923 296.950, 102 296.412, 102 339.167 L 102 377.888 104.370 380.644 C 106.151 382.714, 107.648 383.400, 110.385 383.400 C 116.403 383.400, 117.428 381.492, 118 369.219 L 118.500 358.500 133.500 357.962 C 151.474 357.318, 156.440 355.642, 163.437 347.858 C 168.878 341.807, 171 335.774, 171 326.359 C 171 317.133, 168.273 309.553, 162.998 304.117 C 157.816 298.778, 152.546 296.215, 144.294 295.022 C 135.862 293.803, 112.616 293.858, 108.295 295.107 M 190.536 298.373 L 188 300.909 188.014 338.705 C 188.021 359.492, 188.303 377.531, 188.641 378.790 C 189.829 383.226, 193.431 384, 212.901 384 C 222.801 384, 233.286 383.501, 236.201 382.891 C 255.753 378.801, 268.976 361.294, 268.976 339.500 C 268.976 321.691, 260.258 307.194, 245.042 299.698 L 238.550 296.500 215.811 296.169 L 193.072 295.837 190.536 298.373 M 289.861 297.912 L 287.500 299.823 287.500 339.307 C 287.500 376.114, 287.624 378.927, 289.324 380.805 C 293.454 385.369, 301.027 384.229, 302.935 378.756 C 303.521 377.076, 304 369.722, 304 362.413 L 304 349.124 322.398 348.812 C 338.827 348.533, 341.021 348.296, 342.898 346.595 C 345.964 343.817, 345.707 338.560, 342.354 335.452 C 339.751 333.040, 339.420 333, 321.854 333 L 304 333 304 322.557 L 304 312.114 324.474 311.807 C 343.400 311.523, 345.100 311.348, 346.950 309.497 C 348.051 308.395, 349.238 306.062, 349.587 304.313 C 350.103 301.734, 349.738 300.647, 347.657 298.566 L 345.091 296 318.656 296 C 294.119 296, 292.052 296.137, 289.861 297.912 M 118.750 310.576 C 118.338 310.993, 118 318.233, 118 326.667 L 118 342 131.250 341.996 C 142.707 341.993, 144.941 341.724, 147.759 340.005 C 157.588 334.013, 157.546 319.907, 147.678 312.592 C 145.235 310.781, 143.152 310.454, 132.178 310.160 C 125.205 309.972, 119.162 310.160, 118.750 310.576 M 205 340.130 L 205 369.261 218.266 368.811 C 229.803 368.420, 232.260 368.028, 237.123 365.801 C 253.608 358.254, 257.774 331.721, 244.549 318.496 C 238.490 312.438, 233.364 311, 217.822 311 L 205 311 205 340.130" stroke="none" fill="#e2e5e7" fill-rule="evenodd"/><path d="M 415.487 63.740 L 479.474 127.980 431.733 128.240 L 383.992 128.500 431.996 176.496 L 480 224.492 480 175.993 L 480 127.494 415.750 63.497 L 351.500 -0.500 415.487 63.740 M 204.296 295.744 C 208.583 295.932, 215.333 295.931, 219.296 295.742 C 223.258 295.552, 219.750 295.399, 211.500 295.400 C 203.250 295.401, 200.008 295.556, 204.296 295.744 M 307.306 295.747 C 313.800 295.922, 324.150 295.921, 330.306 295.746 C 336.463 295.571, 331.150 295.428, 318.500 295.429 C 305.850 295.429, 300.813 295.573, 307.306 295.747 M 118.405 326.500 C 118.406 335.300, 118.559 338.766, 118.745 334.203 C 118.930 329.639, 118.929 322.439, 118.742 318.203 C 118.555 313.966, 118.404 317.700, 118.405 326.500 M 312.299 332.745 C 317.139 332.929, 324.789 332.928, 329.299 332.743 C 333.810 332.558, 329.850 332.408, 320.500 332.409 C 311.150 332.410, 307.460 332.562, 312.299 332.745 M 118.355 367.500 C 118.352 372.450, 118.521 374.601, 118.731 372.280 C 118.940 369.959, 118.943 365.909, 118.736 363.280 C 118.530 360.651, 118.358 362.550, 118.355 367.500 M 210.250 368.739 C 213.412 368.937, 218.588 368.937, 221.750 368.739 C 224.912 368.541, 222.325 368.378, 216 368.378 C 209.675 368.378, 207.088 368.541, 210.250 368.739 M 415.201 421.173 C 414.882 423.828, 409.897 429.145, 406.329 430.636 C 403.620 431.768, 376.941 432, 249.532 432 L 96 432 96 440.009 L 96 448.019 250.828 447.759 L 405.656 447.500 409.187 444.806 C 414.551 440.715, 416.147 436.444, 415.743 427.260 C 415.556 422.992, 415.312 420.253, 415.201 421.173" stroke="none" fill="#cad1d8" fill-rule="evenodd"/><path d="M 352 48.704 C 352 79.857, 352.389 98.776, 353.099 102.201 C 354.493 108.917, 357.793 114.677, 362.885 119.277 C 372.425 127.896, 374.493 128.152, 431.753 127.795 L 479.006 127.500 415.503 64.003 L 352 0.506 352 48.704 M 124.250 310.739 C 127.412 310.937, 132.588 310.937, 135.750 310.739 C 138.912 310.541, 136.325 310.378, 130 310.378 C 123.675 310.378, 121.088 310.541, 124.250 310.739" stroke="none" fill="#b0b7bd" fill-rule="evenodd"/><path d="M 39.859 242.158 C 37.856 243.319, 35.268 245.957, 34.109 248.021 C 32.010 251.754, 32 252.180, 32 336 C 32 419.938, 32.007 420.241, 34.118 423.996 C 35.283 426.069, 37.940 428.722, 40.023 429.893 L 43.810 432.021 224.155 431.761 C 403.508 431.501, 404.519 431.489, 407.965 429.465 C 409.870 428.345, 412.345 425.870, 413.465 423.965 C 415.462 420.565, 415.505 418.932, 415.771 337 L 416.041 253.500 413.771 249 C 412.106 245.702, 410.308 243.899, 407.038 242.250 L 402.576 240 223.038 240.023 L 43.500 240.046 39.859 242.158 M 108 294.660 C 107.175 294.987, 105.487 296.176, 104.250 297.302 L 102 299.349 102 339.222 L 102 379.095 104.646 381.548 C 107.576 384.263, 112.414 384.762, 115.211 382.637 C 118.006 380.513, 119 376.393, 119 366.935 L 119 358 132.962 358 C 149.487 358, 155.320 356.366, 162.023 349.862 C 174.910 337.356, 174.543 313.690, 161.282 302.017 C 153.995 295.602, 150.158 294.707, 128.500 294.365 C 118.050 294.200, 108.825 294.333, 108 294.660 M 194.500 295.659 C 193.400 295.956, 191.488 297.133, 190.250 298.274 L 188 300.349 188 340.102 L 188 379.855 190.635 381.927 C 193.103 383.869, 194.539 383.999, 213.385 383.988 C 238.893 383.973, 244.119 382.755, 253.963 374.531 C 275.682 356.386, 274.096 318.363, 250.972 302.823 C 241.632 296.546, 237.901 295.756, 216 295.419 C 205.275 295.253, 195.600 295.362, 194.500 295.659 M 293.270 295.703 C 292.043 295.940, 290.131 297.289, 289.020 298.702 C 287.072 301.178, 287 302.657, 287 339.998 L 287 378.727 289.636 381.364 C 293.129 384.857, 298.157 384.933, 301.545 381.545 C 303.934 379.157, 304 378.686, 304 364.045 L 304 349 322.077 349 L 340.154 349 343.179 345.975 C 345.628 343.526, 346.074 342.431, 345.522 340.230 C 343.764 333.225, 339.968 332, 320.032 332 L 304 332 304 322 L 304 312 324.364 312 L 344.727 312 347.364 309.364 C 352.138 304.589, 350.375 297.828, 343.869 295.962 C 340.643 295.037, 297.852 294.818, 293.270 295.703 M 119 326.500 L 119 342 131.099 342 C 140.190 342, 144.048 341.596, 146.619 340.377 C 156.989 335.456, 157.780 319.925, 148.001 313.250 C 145.004 311.204, 143.537 311, 131.852 311 L 119 311 119 326.500 M 205 339.387 L 205 368 217.634 368 C 224.630 368, 232.105 367.457, 234.384 366.784 C 240.535 364.966, 248.418 356.698, 250.417 349.966 C 253.868 338.345, 251.370 325.690, 244.256 318.758 C 238.181 312.838, 234.318 311.694, 218.750 311.205 L 205 310.773 205 339.387" stroke="none" fill="#f15642" fill-rule="evenodd"/><path d="" stroke="none" fill="#f45444" fill-rule="evenodd"/></svg>